<svg width="44" height="32" viewBox="0 0 44 32" fill="none" xmlns="http://www.w3.org/2000/svg">
<path d="M43.3217 2.44444C42.4747 0.988778 40.9163 0 39.1111 0H22V2.44444H43.3217ZM0 24.4444H44V26.8889H0V24.4444ZM22 14.6667H44V17.1111H22V14.6667ZM22 9.77778H44V12.2222H22V9.77778ZM0 19.5556H44V22H0V19.5556ZM4.88889 31.7778H39.1111C40.9163 31.7778 42.4747 30.789 43.3217 29.3333H0.678333C1.52533 30.789 3.08367 31.7778 4.88889 31.7778ZM22 4.88889H44V7.33333H22V4.88889Z" fill="#B22334"/>
<path d="M0.0831111 27.7188C0.103481 27.8329 0.127519 27.9457 0.155222 28.0573C0.187815 28.1796 0.225296 28.3002 0.267667 28.4191C0.376444 28.7357 0.508444 29.0412 0.674667 29.3272L0.678333 29.3333H43.3217L43.3241 29.3285C43.4897 29.0411 43.6257 28.7377 43.7299 28.4228C43.8092 28.1931 43.8713 27.9578 43.9157 27.7188C43.9658 27.4499 44 27.1737 44 26.8889H0C0 27.1737 0.0342222 27.4487 0.0831111 27.7188ZM0 22H44V24.4445H0V22ZM0 17.1111V19.5556H44V17.1111H22H0ZM22 12.2222H44V14.6667H22V12.2222ZM22 7.33335H44V9.77779H22V7.33335ZM0.156444 3.72046C0.187 3.59579 0.229778 3.47724 0.268889 3.35746C0.226717 3.47696 0.189207 3.59805 0.156444 3.72046ZM22 4.8889H44C44 4.60412 43.9658 4.3279 43.9157 4.05779C43.8729 3.81836 43.8103 3.58289 43.7287 3.35379C43.6243 3.03761 43.4879 2.73292 43.3217 2.44446H22V4.8889Z" fill="#EEEEEE"/>
<path d="M22 0H4.88889C3.59227 0 2.34877 0.515078 1.43192 1.43192C0.515078 2.34877 0 3.59227 0 4.88889L0 17.1111H22V0Z" fill="#3C3B6E"/>
<path d="M2.44531 3.33179L3.20065 3.88057L2.9122 4.76668L3.66631 4.21912L4.42165 4.76668L4.1332 3.88057L4.88853 3.33179H3.95476L3.66631 2.44446L3.37909 3.33179H2.44531ZM4.88976 5.77624L5.64509 6.32501L5.35665 7.21112L6.11076 6.66357L6.86609 7.21112L6.57765 6.32501L7.33298 5.77624H6.3992L6.11076 4.8889L5.82353 5.77624H4.88976ZM9.77865 5.77624L10.534 6.32501L10.2455 7.21112L10.9996 6.66357L11.755 7.21112L11.4665 6.32501L12.2219 5.77624H11.2881L10.9996 4.8889L10.7124 5.77624H9.77865ZM14.6675 5.77624L15.4229 6.32501L15.1344 7.21112L15.8885 6.66357L16.6439 7.21112L16.3554 6.32501L17.1108 5.77624H16.177L15.8885 4.8889L15.6013 5.77624H14.6675ZM4.88976 10.6651L5.64509 11.2139L5.35665 12.1L6.11076 11.5525L6.86609 12.1L6.57765 11.2139L7.33298 10.6651H6.3992L6.11076 9.77779L5.82353 10.6651H4.88976ZM9.77865 10.6651L10.534 11.2139L10.2455 12.1L10.9996 11.5525L11.755 12.1L11.4665 11.2139L12.2219 10.6651H11.2881L10.9996 9.77779L10.7124 10.6651H9.77865ZM14.6675 10.6651L15.4229 11.2139L15.1344 12.1L15.8885 11.5525L16.6439 12.1L16.3554 11.2139L17.1108 10.6651H16.177L15.8885 9.77779L15.6013 10.6651H14.6675ZM7.3342 3.33179L8.08953 3.88057L7.80109 4.76668L8.5552 4.21912L9.31053 4.76668L9.02209 3.88057L9.77742 3.33179H8.84365L8.5552 2.44446L8.26798 3.33179H7.3342ZM12.2231 3.33179L12.9784 3.88057L12.69 4.76668L13.4441 4.21912L14.1994 4.76668L13.911 3.88057L14.6663 3.33179H13.7325L13.4441 2.44446L13.1569 3.33179H12.2231ZM17.112 3.33179L17.8673 3.88057L17.5789 4.76668L18.333 4.21912L19.0883 4.76668L18.7999 3.88057L19.5552 3.33179H18.6214L18.333 2.44446L18.0458 3.33179H17.112ZM2.44531 8.22068L3.20065 8.76946L2.9122 9.65557L3.66631 9.10801L4.42165 9.65557L4.1332 8.76946L4.88853 8.22068H3.95476L3.66631 7.33335L3.37909 8.22068H2.44531ZM7.80109 9.65557L8.5552 9.10801L9.31053 9.65557L9.02209 8.76946L9.77742 8.22068H8.84365L8.5552 7.33335L8.26798 8.22068H7.3342L8.08953 8.76946L7.80109 9.65557ZM12.2231 8.22068L12.9784 8.76946L12.69 9.65557L13.4441 9.10801L14.1994 9.65557L13.911 8.76946L14.6663 8.22068H13.7325L13.4441 7.33335L13.1569 8.22068H12.2231ZM17.112 8.22068L17.8673 8.76946L17.5789 9.65557L18.333 9.10801L19.0883 9.65557L18.7999 8.76946L19.5552 8.22068H18.6214L18.333 7.33335L18.0458 8.22068H17.112ZM2.44531 13.1096L3.20065 13.6583L2.9122 14.5445L3.66631 13.9969L4.42165 14.5445L4.1332 13.6583L4.88853 13.1096H3.95476L3.66631 12.2222L3.37909 13.1096H2.44531ZM7.80109 14.5445L8.5552 13.9969L9.31053 14.5445L9.02209 13.6583L9.77742 13.1096H8.84365L8.5552 12.2222L8.26798 13.1096H7.3342L8.08953 13.6583L7.80109 14.5445ZM12.2231 13.1096L12.9784 13.6583L12.69 14.5445L13.4441 13.9969L14.1994 14.5445L13.911 13.6583L14.6663 13.1096H13.7325L13.4441 12.2222L13.1569 13.1096H12.2231ZM17.112 13.1096L17.8673 13.6583L17.5789 14.5445L18.333 13.9969L19.0883 14.5445L18.7999 13.6583L19.5552 13.1096H18.6214L18.333 12.2222L18.0458 13.1096H17.112Z" fill="white"/>
</svg>
