<svg width="20" height="20" viewBox="0 0 20 20" fill="none" xmlns="http://www.w3.org/2000/svg">
<path d="M17.9138 3.88783C14.5398 -0.482171 8.25983 -1.29017 3.88783 2.08583C-0.482171 5.45983 -1.29017 11.7398 2.08583 16.1118C5.46083 20.4818 11.7408 21.2898 16.1118 17.9138L16.1138 17.9118C20.4828 14.5358 21.2888 8.25783 17.9138 3.88783ZM15.3548 6.38283L14.5748 5.61483L14.4058 5.44683L14.4528 5.39983L15.6368 4.28183C15.8488 4.53883 15.9648 4.86183 15.9648 5.19683C15.9638 5.58683 15.8078 5.96183 15.5308 6.23783C15.4755 6.29116 15.4168 6.3395 15.3548 6.38283ZM4.69783 14.7378L4.83683 14.8678L5.56183 15.5928L3.94783 15.4878L4.69783 14.7378ZM14.4898 3.72983C14.8148 3.73183 15.1308 3.83983 15.3898 4.03783L14.0898 5.34583C14.0705 5.36135 14.0557 5.38171 14.0468 5.40483L14.0458 5.40983L14.0438 5.41583C14.0365 5.44084 14.0369 5.46746 14.045 5.49225C14.053 5.51703 14.0683 5.53884 14.0888 5.55483L15.0728 6.53783C14.8037 6.65484 14.5056 6.68804 14.2173 6.6331C13.9291 6.57816 13.664 6.43762 13.4568 6.22983C13.2535 6.02452 13.1151 5.76381 13.0591 5.48031C13.0031 5.1968 13.0318 4.90307 13.1418 4.63583C13.2515 4.3683 13.4382 4.13938 13.6782 3.97808C13.9182 3.81679 14.2007 3.73039 14.4898 3.72983ZM13.5808 6.99583C13.579 7.0594 13.564 7.1219 13.5368 7.17939C13.5096 7.23688 13.4708 7.2881 13.4228 7.32983L9.52783 10.7188L9.51483 10.7298L9.37283 10.5878L9.31083 10.5258L9.28083 10.4958L9.19383 10.4088L9.16083 10.3758L9.09383 10.3088L12.7808 6.65483C12.856 6.5781 12.9556 6.5301 13.0625 6.51914C13.1693 6.50818 13.2767 6.53496 13.3658 6.59483C13.3923 6.61243 13.4171 6.63252 13.4398 6.65483L13.4768 6.69283C13.5088 6.74083 13.5365 6.79083 13.5598 6.84283C13.5752 6.89283 13.5822 6.94383 13.5808 6.99583ZM9.08283 10.7358L9.08983 10.7548L9.12383 10.7878L9.26983 10.9308L9.21583 10.9378L8.40683 11.0368L8.50683 10.9368L8.89783 10.5468L9.08283 10.7358ZM13.0128 6.23683C12.8461 6.25881 12.6913 6.33548 12.5728 6.45483L8.89783 10.1128L8.17783 9.39283C10.0828 7.49483 11.2478 6.50483 11.9728 6.17983C12.1307 6.08034 12.3156 6.03239 12.5019 6.0426C12.6882 6.05281 12.8668 6.12069 13.0128 6.23683ZM7.96483 9.60483L7.97983 9.61983L8.57483 10.2148L7.02283 10.5468L7.96483 9.60483ZM5.93183 14.4628C5.88323 14.4856 5.84413 14.5247 5.8213 14.5733C5.79847 14.6218 5.79335 14.6769 5.80683 14.7288L5.97283 15.4538C5.97909 15.4624 5.98246 15.4727 5.98246 15.4833C5.98246 15.4939 5.97909 15.5043 5.97283 15.5128C5.9637 15.5208 5.95197 15.5253 5.93983 15.5253C5.92768 15.5253 5.91595 15.5208 5.90683 15.5128L4.92283 14.5208L7.95283 11.4458L9.52183 11.2028L10.0978 11.7788C8.82281 12.8387 7.42392 13.7399 5.93183 14.4628ZM10.3728 11.5628L9.76483 10.9548L13.5938 7.59683C13.3218 8.67683 11.8778 10.1408 10.3728 11.5628ZM15.6478 5.01283C15.6321 4.9864 15.6072 4.96668 15.5779 4.95746C15.5485 4.94824 15.5168 4.95015 15.4888 4.96283C15.4752 4.9699 15.463 4.9796 15.4531 4.99138C15.4432 5.00316 15.4357 5.01677 15.431 5.03145C15.4264 5.04613 15.4247 5.06158 15.426 5.07692C15.4274 5.09225 15.4317 5.10718 15.4388 5.12083C15.4676 5.18114 15.4789 5.24824 15.4717 5.31465C15.4644 5.38105 15.4389 5.44413 15.3978 5.49683C15.3872 5.50692 15.3789 5.51923 15.3735 5.53288C15.3682 5.54653 15.3659 5.56119 15.3668 5.57583C15.3668 5.6065 15.3768 5.63283 15.3968 5.65483C15.4185 5.66253 15.4422 5.66253 15.4638 5.65483C15.4833 5.6598 15.5037 5.65935 15.5229 5.65353C15.5421 5.64772 15.5594 5.63675 15.5728 5.62183C15.6421 5.53804 15.686 5.43619 15.6993 5.32828C15.7126 5.22038 15.6947 5.11092 15.6478 5.01283Z" fill="black"/>
</svg>
