<svg width="74" height="74" viewBox="0 0 74 74" fill="none" xmlns="http://www.w3.org/2000/svg">
<g clip-path="url(#clip0_296_1686)">
<rect width="74" height="74" fill="white"/>
<path d="M92.8819 5.69231C90.9095 2.30254 87.2807 0 83.0769 0H43.2308V5.69231H92.8819ZM-8 56.9231H94.4615V62.6154H-8V56.9231ZM43.2308 34.1538H94.4615V39.8462H43.2308V34.1538ZM43.2308 22.7692H94.4615V28.4615H43.2308V22.7692ZM-8 45.5385H94.4615V51.2308H-8V45.5385ZM3.38462 74H83.0769C87.2807 74 90.9095 71.6975 92.8819 68.3077H-6.42038C-4.448 71.6975 -0.819154 74 3.38462 74ZM43.2308 11.3846H94.4615V17.0769H43.2308V11.3846Z" fill="#B22334"/>
<path d="M-7.80646 64.548C-7.75903 64.8136 -7.70305 65.0764 -7.63854 65.3364C-7.56264 65.621 -7.47536 65.9018 -7.37669 66.1788C-7.12338 66.916 -6.816 67.6275 -6.42892 68.2935L-6.42038 68.3078H92.8819L92.8876 68.2964C93.2733 67.6273 93.5899 66.9206 93.8325 66.1874C94.0173 65.6524 94.1619 65.1045 94.2652 64.548C94.3819 63.9218 94.4615 63.2786 94.4615 62.6155H-8C-8 63.2786 -7.92031 63.919 -7.80646 64.548ZM-8 51.2308H94.4615V56.9232H-8V51.2308ZM-8 39.8462V45.5385H94.4615V39.8462H43.2308H-8ZM43.2308 28.4616H94.4615V34.1539H43.2308V28.4616ZM43.2308 17.077H94.4615V22.7693H43.2308V17.077ZM-7.63569 8.66377C-7.56454 8.37346 -7.46492 8.09738 -7.37385 7.81846C-7.47205 8.09673 -7.5594 8.37871 -7.63569 8.66377ZM43.2308 11.3847H94.4615C94.4615 10.7215 94.3819 10.0783 94.2652 9.44931C94.1656 8.89175 94.0199 8.34341 93.8297 7.80992C93.5867 7.07364 93.2691 6.36411 92.8819 5.69238H43.2308V11.3847Z" fill="#EEEEEE"/>
<path d="M43.2308 0H3.38462C0.365228 0 -2.53049 1.19945 -4.66552 3.33448C-6.80055 5.46951 -8 8.36523 -8 11.3846L-8 39.8462H43.2308V0Z" fill="#3C3B6E"/>
<path d="M-2.30176 7.75869L-0.542835 9.03661L-1.21453 11.1001L0.54155 9.825L2.30047 11.1001L1.62878 9.03661L3.3877 7.75869H1.21324L0.54155 5.69238L-0.127296 7.75869H-2.30176ZM3.39055 13.451L5.14947 14.7289L4.47778 16.7924L6.23386 15.5173L7.99278 16.7924L7.32109 14.7289L9.08001 13.451H6.90555L6.23386 11.3847L5.56501 13.451H3.39055ZM14.7752 13.451L16.5341 14.7289L15.8624 16.7924L17.6185 15.5173L19.3774 16.7924L18.7057 14.7289L20.4646 13.451H18.2902L17.6185 11.3847L16.9496 13.451H14.7752ZM26.1598 13.451L27.9187 14.7289L27.247 16.7924L29.0031 15.5173L30.762 16.7924L30.0903 14.7289L31.8492 13.451H29.6748L29.0031 11.3847L28.3342 13.451H26.1598ZM3.39055 24.8356L5.14947 26.1135L4.47778 28.177L6.23386 26.9019L7.99278 28.177L7.32109 26.1135L9.08001 24.8356H6.90555L6.23386 22.7693L5.56501 24.8356H3.39055ZM14.7752 24.8356L16.5341 26.1135L15.8624 28.177L17.6185 26.9019L19.3774 28.177L18.7057 26.1135L20.4646 24.8356H18.2902L17.6185 22.7693L16.9496 24.8356H14.7752ZM26.1598 24.8356L27.9187 26.1135L27.247 28.177L29.0031 26.9019L30.762 28.177L30.0903 26.1135L31.8492 24.8356H29.6748L29.0031 22.7693L28.3342 24.8356H26.1598ZM9.08286 7.75869L10.8418 9.03661L10.1701 11.1001L11.9262 9.825L13.6851 11.1001L13.0134 9.03661L14.7723 7.75869H12.5979L11.9262 5.69238L11.2573 7.75869H9.08286ZM20.4675 7.75869L22.2264 9.03661L21.5547 11.1001L23.3108 9.825L25.0697 11.1001L24.398 9.03661L26.1569 7.75869H23.9825L23.3108 5.69238L22.6419 7.75869H20.4675ZM31.8521 7.75869L33.611 9.03661L32.9393 11.1001L34.6954 9.825L36.4543 11.1001L35.7826 9.03661L37.5416 7.75869H35.3671L34.6954 5.69238L34.0266 7.75869H31.8521ZM-2.30176 19.1433L-0.542835 20.4212L-1.21453 22.4847L0.54155 21.2096L2.30047 22.4847L1.62878 20.4212L3.3877 19.1433H1.21324L0.54155 17.077L-0.127296 19.1433H-2.30176ZM10.1701 22.4847L11.9262 21.2096L13.6851 22.4847L13.0134 20.4212L14.7723 19.1433H12.5979L11.9262 17.077L11.2573 19.1433H9.08286L10.8418 20.4212L10.1701 22.4847ZM20.4675 19.1433L22.2264 20.4212L21.5547 22.4847L23.3108 21.2096L25.0697 22.4847L24.398 20.4212L26.1569 19.1433H23.9825L23.3108 17.077L22.6419 19.1433H20.4675ZM31.8521 19.1433L33.611 20.4212L32.9393 22.4847L34.6954 21.2096L36.4543 22.4847L35.7826 20.4212L37.5416 19.1433H35.3671L34.6954 17.077L34.0266 19.1433H31.8521ZM-2.30176 30.5279L-0.542835 31.8058L-1.21453 33.8693L0.54155 32.5942L2.30047 33.8693L1.62878 31.8058L3.3877 30.5279H1.21324L0.54155 28.4616L-0.127296 30.5279H-2.30176ZM10.1701 33.8693L11.9262 32.5942L13.6851 33.8693L13.0134 31.8058L14.7723 30.5279H12.5979L11.9262 28.4616L11.2573 30.5279H9.08286L10.8418 31.8058L10.1701 33.8693ZM20.4675 30.5279L22.2264 31.8058L21.5547 33.8693L23.3108 32.5942L25.0697 33.8693L24.398 31.8058L26.1569 30.5279H23.9825L23.3108 28.4616L22.6419 30.5279H20.4675ZM31.8521 30.5279L33.611 31.8058L32.9393 33.8693L34.6954 32.5942L36.4543 33.8693L35.7826 31.8058L37.5416 30.5279H35.3671L34.6954 28.4616L34.0266 30.5279H31.8521Z" fill="white"/>
</g>
<defs>
<clipPath id="clip0_296_1686">
<rect width="74" height="74" fill="white"/>
</clipPath>
</defs>
</svg>
