<svg width="44" height="32" viewBox="0 0 44 32" fill="none" xmlns="http://www.w3.org/2000/svg">
<path d="M44 26.8889C44 28.1855 43.4849 29.429 42.5681 30.3459C41.6512 31.2627 40.4077 31.7778 39.1111 31.7778H4.88889C3.59227 31.7778 2.34877 31.2627 1.43192 30.3459C0.515078 29.429 0 28.1855 0 26.8889V4.88889C0 3.59227 0.515078 2.34877 1.43192 1.43192C2.34877 0.515078 3.59227 0 4.88889 0H39.1111C40.4077 0 41.6512 0.515078 42.5681 1.43192C43.4849 2.34877 44 3.59227 44 4.88889V26.8889Z" fill="#C60A1D"/>
<path d="M0 8.5556H44V23.2223H0V8.5556Z" fill="#FFC400"/>
<path d="M11 14.6667V18.3334C11 19.3058 11.3863 20.2384 12.0739 20.9261C12.7616 21.6137 13.6942 22 14.6667 22C15.6391 22 16.5718 21.6137 17.2594 20.9261C17.947 20.2384 18.3333 19.3058 18.3333 18.3334V14.6667H11Z" fill="#EA596E"/>
<path d="M14.667 13.4445H18.3337V17.1111H14.667V13.4445Z" fill="#F4A2B2"/>
<path d="M11 13.4445H14.6667V17.1111H11V13.4445Z" fill="#DD2E44"/>
<path d="M14.6667 13.4445C16.6917 13.4445 18.3333 12.6237 18.3333 11.6112C18.3333 10.5986 16.6917 9.77783 14.6667 9.77783C12.6416 9.77783 11 10.5986 11 11.6112C11 12.6237 12.6416 13.4445 14.6667 13.4445Z" fill="#EA596E"/>
<path d="M14.6667 11.6112C16.6917 11.6112 18.3333 11.2008 18.3333 10.6945C18.3333 10.1882 16.6917 9.77783 14.6667 9.77783C12.6416 9.77783 11 10.1882 11 10.6945C11 11.2008 12.6416 11.6112 14.6667 11.6112Z" fill="#FFAC33"/>
<path d="M8.55566 13.4445H9.77789V22H8.55566V13.4445ZM19.5557 13.4445H20.7779V22H19.5557V13.4445Z" fill="#99AAB5"/>
<path d="M7.33301 20.7778H10.9997V22H7.33301V20.7778ZM18.333 20.7778H21.9997V22H18.333V20.7778ZM8.55523 12.2222H9.77745V13.4445H8.55523V12.2222ZM19.5552 12.2222H20.7775V13.4445H19.5552V12.2222Z" fill="#66757F"/>
</svg>
