<svg width="74" height="74" viewBox="0 0 74 74" fill="none" xmlns="http://www.w3.org/2000/svg">
<g clip-path="url(#clip0_296_1684)">
<rect width="74" height="74" fill="white"/>
<path d="M92.231 62.4745C92.231 65.4871 91.0342 68.3763 88.904 70.5065C86.7738 72.6367 83.8846 73.8335 80.872 73.8335H1.359C-1.65359 73.8335 -4.5428 72.6367 -6.67303 70.5065C-8.80325 68.3763 -10 65.4871 -10 62.4745V11.359C-10 8.34641 -8.80325 5.4572 -6.67303 3.32697C-4.5428 1.19675 -1.65359 0 1.359 0H80.872C83.8846 0 86.7738 1.19675 88.904 3.32697C91.0342 5.4572 92.231 8.34641 92.231 11.359V62.4745Z" fill="#C60A1D"/>
<path d="M-10 19.8784H92.231V53.9554H-10V19.8784Z" fill="#FFC400"/>
<path d="M15.5576 34.0771V42.5964C15.5576 44.8558 16.4552 47.0227 18.0528 48.6204C19.6505 50.2181 21.8174 51.1156 24.0769 51.1156C26.3363 51.1156 28.5032 50.2181 30.1009 48.6204C31.6986 47.0227 32.5961 44.8558 32.5961 42.5964V34.0771H15.5576Z" fill="#EA596E"/>
<path d="M24.0771 31.2378H32.5964V39.757H24.0771V31.2378Z" fill="#F4A2B2"/>
<path d="M15.5576 31.2378H24.0769V39.757H15.5576V31.2378Z" fill="#DD2E44"/>
<path d="M24.0769 31.2375C28.7819 31.2375 32.5961 29.3304 32.5961 26.9779C32.5961 24.6254 28.7819 22.7183 24.0769 22.7183C19.3718 22.7183 15.5576 24.6254 15.5576 26.9779C15.5576 29.3304 19.3718 31.2375 24.0769 31.2375Z" fill="#EA596E"/>
<path d="M24.0769 26.9779C28.7819 26.9779 32.5961 26.0243 32.5961 24.8481C32.5961 23.6718 28.7819 22.7183 24.0769 22.7183C19.3718 22.7183 15.5576 23.6718 15.5576 24.8481C15.5576 26.0243 19.3718 26.9779 24.0769 26.9779Z" fill="#FFAC33"/>
<path d="M9.87793 31.2378H12.7177V51.116H9.87793V31.2378ZM35.4357 31.2378H38.2754V51.116H35.4357V31.2378Z" fill="#99AAB5"/>
<path d="M7.03809 48.2757H15.5573V51.1155H7.03809V48.2757ZM32.5958 48.2757H41.1151V51.1155H32.5958V48.2757ZM9.87784 28.3975H12.7176V31.2372H9.87784V28.3975ZM35.4356 28.3975H38.2753V31.2372H35.4356V28.3975Z" fill="#66757F"/>
</g>
<defs>
<clipPath id="clip0_296_1684">
<rect width="74" height="74" fill="white"/>
</clipPath>
</defs>
</svg>
